<svg xmlns="http://www.w3.org/2000/svg" viewBox="0 0 30.23 30.23"><defs><style>.cls-1{fill:#222221;}</style></defs><title>dribbble</title><g id="Layer_2" data-name="Layer 2"><g id="Capa_1" data-name="Capa 1"><g id="_Group_" data-name="&lt;Group&gt;"><path id="_Compound_Path_" data-name="&lt;Compound Path&gt;" class="cls-1" d="M15.12,0A15.12,15.12,0,1,0,30.23,15.12,15.12,15.12,0,0,0,15.12,0Zm0,2.63a12.42,12.42,0,0,1,7.61,2.61,15.28,15.28,0,0,1-6.28,4.64A58.05,58.05,0,0,0,12.05,3,12.39,12.39,0,0,1,15.12,2.63ZM9.48,4a56.22,56.22,0,0,1,4.46,6.78A40.07,40.07,0,0,1,3,12.16,12.52,12.52,0,0,1,9.48,4ZM2.63,15.12c0-.11,0-.21,0-.32a42.23,42.23,0,0,0,12.53-1.67q.44.9.84,1.8A19.45,19.45,0,0,0,5.52,23.1,12.43,12.43,0,0,1,2.63,15.12ZM15.12,27.61A12.41,12.41,0,0,1,7.45,25,17,17,0,0,1,17,17.36a49.41,49.41,0,0,1,2.57,9.4A12.4,12.4,0,0,1,15.12,27.61ZM22,25.5a51.87,51.87,0,0,0-2.42-8.69,25.12,25.12,0,0,1,7.81.25A12.49,12.49,0,0,1,22,25.5ZM18.62,14.32c-.31-.71-.63-1.42-1-2.12a17.86,17.86,0,0,0,7-5.14,12.43,12.43,0,0,1,2.92,7.35A27,27,0,0,0,18.62,14.32Z"/></g></g></g></svg>