<svg xmlns="http://www.w3.org/2000/svg" viewBox="0 0 37.96 26.74"><defs><style>.cls-1{fill:#222221;}.cls-2{fill:#fff;}</style></defs><title>yt</title><g id="Layer_2" data-name="Layer 2"><g id="Capa_1" data-name="Capa 1"><g id="_Group_" data-name="&lt;Group&gt;"><g id="_Group_2" data-name="&lt;Group&gt;"><path id="_Compound_Path_" data-name="&lt;Compound Path&gt;" class="cls-1" d="M37.16,4.18A4.77,4.77,0,0,0,33.81.8C30.85,0,19,0,19,0S7.11,0,4.15.8A4.77,4.77,0,0,0,.79,4.18C0,7.16,0,13.37,0,13.37s0,6.22.79,9.2a4.77,4.77,0,0,0,3.36,3.38c3,.8,14.83.8,14.83.8s11.87,0,14.83-.8a4.77,4.77,0,0,0,3.36-3.38c.79-3,.79-9.2.79-9.2S38,7.16,37.16,4.18Z"/><polygon id="_Path_" data-name="&lt;Path&gt;" class="cls-2" points="15.1 19.02 15.1 7.73 25.02 13.37 15.1 19.02"/></g></g></g></g></svg>